<svg xmlns="http://www.w3.org/2000/svg" viewBox="0 0 248 52" role="img" aria-labelledby="title description">
  <title id="title">Quantix custom wordmark study</title>
  <desc id="description">A custom-drawn Title-case precision grotesk wordmark with an accountable open Q terminal and asymmetric x.</desc>
  <g id="quantix-wordmark" fill="none" stroke="#15242B" stroke-width="6.5" stroke-linecap="butt" stroke-linejoin="round">
    <path id="wordmark-q" d="M24 5C13 5 8 11 8 24s5 19 16 19 17-6 17-19S35 5 24 5Z M27 31l16 14" />
    <path id="wordmark-u" d="M55 18v15c0 7 4 10 11 10s11-4 11-12V18 M77 18v25" />
    <path id="wordmark-a" d="M114 23c-3-4-6-6-11-6-8 0-12 6-12 13 0 8 4 13 11 13 6 0 10-3 12-8 M115 18v25" />
    <path id="wordmark-n" d="M130 43V18 M130 27c2-6 6-10 12-10 7 0 11 4 11 12v14" />
    <path id="wordmark-t" d="M177 7v28c0 5 3 8 9 8 M166 19h22" />
    <path id="wordmark-i" d="M200 20v23" />
    <path id="wordmark-x" d="m216 18 25 25 M243 17l-24 26" />
  </g>
  <path id="wordmark-i-dot" fill="#A8462F" d="M196.75 7h6.5v6.5h-6.5Z" />
</svg>
